<svg xmlns="http://www.w3.org/2000/svg" viewBox="0 0 80 80"><path fill="#f5ce85" d="M38,76.5c-2.7,0-5.2-1.1-7-3.1l-0.1-0.1l-0.1,0c-8.5-3-14.3-11.2-14.3-20.3V23.8 c0-5.5,4.5-10,10-10h23c5.5,0,10,4.5,10,10V53c0,9.1-5.7,17.2-14.3,20.3l-0.1,0L45,73.4C43.2,75.4,40.7,76.5,38,76.5z"/><path fill="#967a44" d="M49.5,14.3c5.2,0,9.5,4.3,9.5,9.5V53c0,8.9-5.6,16.8-14,19.8l-0.2,0.1l-0.2,0.2 C42.9,74.9,40.5,76,38,76s-4.9-1.1-6.6-2.9l-0.2-0.2L31,72.8c-8.3-3-14-10.9-14-19.8V23.8c0-5.2,4.3-9.5,9.5-9.5L49.5,14.3 M49.5,13.3h-23C20.7,13.3,16,18,16,23.8V53c0,9.6,6.1,17.7,14.6,20.7c1.8,2,4.5,3.3,7.4,3.3c2.9,0,5.6-1.3,7.4-3.3 C53.9,70.7,60,62.6,60,53V23.8C60,18,55.3,13.3,49.5,13.3L49.5,13.3z"/><path fill="#a6714e" d="M62,75.5c-6.4,0-12.2-2.6-14.2-3.6c2.6-1.7,10.7-7.9,10.7-18.4V39.8c0-7.3-7.9-12-8.2-12.2l-0.4-0.3 l-0.2,0.5c-0.1,0.1-5.5,9.9-19.1,11.7c-6.2,0.9-12.9,5.3-12.9,12.9v1.2c0,10.7,9,17.1,11.9,18.9c-2.3,0.9-8.2,3-13.4,3 c-8.5,0-12.4-4.3-13.4-5.5c1.3-1.6,6.7-8.6,6.7-13.7c0-2.6-0.6-5.7-1.3-8.9C7.3,43.6,6.5,39.8,6.5,36c0-21,15-33.5,29.4-33.5 c10.9,0,15.6,7.7,15.6,7.8l0.1,0.2H52c9.5,0,19.5,7.5,19.5,21.5c0,4.5-1,9.2-1.9,13.7c-0.8,3.9-1.6,7.6-1.6,10.6 c0,6.4,7.1,12.2,9.2,13.7C75.4,71.3,69.2,75.5,62,75.5z"/><path fill="#7a4f34" d="M35.9,3c4.5,0,8.4,1.3,11.6,3.7c2.4,1.9,3.6,3.8,3.6,3.8l0.3,0.5H52c9.2,0,19,7.4,19,21 c0,4.4-1,9.1-1.9,13.6c-0.8,3.9-1.6,7.6-1.6,10.7c0,6.2,6.2,11.7,8.8,13.7c-2.2,1.6-7.9,5-14.3,5c-5.6,0-10.7-2-13.2-3.1 C52,69.6,59,63.6,59,53.6V39.8c0-7.5-8.1-12.4-8.5-12.6l-0.9-0.5l-0.5,0.9c-0.1,0.1-5.3,9.6-18.8,11.5C23.9,39.9,17,44.5,17,52.4 v0.1v1c0,10.1,7.7,16.4,11.2,18.8c-2.7,1-7.8,2.6-12.2,2.6c-7.7,0-11.5-3.6-12.7-5c1.6-2.1,6.5-8.8,6.5-13.7c0-2.7-0.6-5.8-1.3-9 C7.8,43.5,7,39.7,7,36C7,15.3,21.7,3,35.9,3 M35.9,2C21.1,2,6,14.9,6,36c0,7.2,2.8,14.8,2.8,20.3S2,70,2,70s3.8,6,14,6 c6.6,0,14.5-3.4,14.5-3.4S18,66.1,18,53.6c0-0.9,0-1,0-1v0c0,0,0,0,0-0.2c0-7.4,6.5-11.6,12.5-12.4C44.6,38.1,50,28,50,28 s8,4.7,8,11.8c0,3.1,0,8.8,0,13.8C58,65.8,46.8,72,46.8,72s7.1,4,15.2,4c8.8,0,16-6,16-6s-9.5-6.5-9.5-13.7 c0-6.4,3.5-15.8,3.5-24.3c0-14.4-10.5-22-20-22C52,10,47.3,2,35.9,2L35.9,2z"/><path fill="#36404d" d="M49 46A3 3 0 1 0 49 52 3 3 0 1 0 49 46zM27 46A3 3 0 1 0 27 52 3 3 0 1 0 27 46z"/><path fill="#fff" d="M59.4,35.2C57,34.3,48.9,31.5,38,31.5c-11,0-19.2,1.4-21.5,1.9l1.8-25.1c1.1-0.9,7.9-5.8,19.7-5.8 c11.8,0,18.6,4.9,19.7,5.8L59.4,35.2z"/><path fill="#788b9c" d="M38,3c11.1,0,17.7,4.4,19.2,5.5l1.7,26C55.8,33.3,48.2,31,38,31c-10.3,0-18,1.2-20.9,1.8l1.7-24.3 C20.3,7.4,26.8,3,38,3 M38,2C24.8,2,17.8,8,17.8,8L16,34c0,0,8.9-2,22-2s22,4,22,4L58.2,8C58.2,8,51.2,2,38,2L38,2z"/><path fill="#c74343" d="M36 10H40V26H36z"/><path fill="#c74343" d="M30 16H46V20H30z"/></svg>