<svg xmlns="http://www.w3.org/2000/svg" width="48" height="48" viewBox="0 0 48 48"><path fill="#4E342E" d="M28,14c0,0-1-1-4-1s-4,1-4,1V5h8V14z"/><path fill="#FF9800" d="M26 11L22 11 22 14.208 24 22 26 14.208z"/><path fill="#FFB74D" d="M16 22c0 0-2 3-2 6l2 3 5-9H16zM32 22c0 0 2 3 2 6l-2 3-5-9H32zM28.5 5c0-3.818-9-2.484-9 0v3.5c0 2.485 2.015 4.5 4.5 4.5 2.484 0 4.5-2.015 4.5-4.5V5z"/><path fill="#FFB74D" d="M25.979,14.257L24,19l-1.979-4.743C18.562,15.139,16,18.267,16,22v8l3,2l1,14h8l1-14l3-2v-8C32,18.267,29.438,15.139,25.979,14.257z"/><path fill="#E91E63" d="M28.625,22H32c0-3.733-2.563-6.861-6.021-7.743L24,19l-1.979-4.743C18.562,15.139,16,18.267,16,22h3.417C15,26,15,37,15,37s2.583,2,9.083,2S33,37,33,37S33,26,28.625,22z"/><path fill="#795548" d="M24,1c-3.038,0-7,1-7,10l3,3V7.5L26,4l2,2.5V14l3-3c0-2.012,0-9-5-9l-0.5-1H24z"/><g><path fill="#F8BBD0" d="M27.493 26.326L24 25 20.682 26.5 24 30z"/><path fill="#F8BBD0" d="M22 23A2 2 0 1 0 22 27A2 2 0 1 0 22 23Z"/><path fill="#F8BBD0" d="M26 23A2 2 0 1 0 26 27A2 2 0 1 0 26 23Z"/></g></svg>