<svg xmlns="http://www.w3.org/2000/svg" viewBox="0 0 30 30"><path fill="#ffc49c" d="M2.5 28.5L2.5 11.2 15.5 3.5 28.5 11.2 28.5 28.5z"/><path fill="#a16a4a" d="M15.5,4.1L28,11.5V28H3V11.5L15.5,4.1 M15.5,2.9L2,11v18h27V11L15.5,2.9L15.5,2.9z"/><path fill="#a16a4a" d="M28 17H3c-.3 0-.5-.2-.5-.5S2.7 16 3 16h25c.3 0 .5.2.5.5S28.3 17 28 17zM11 20H7c-.3 0-.5-.2-.5-.5S6.7 19 7 19h4c.3 0 .5.2.5.5S11.3 20 11 20zM24 20h-4c-.3 0-.5-.2-.5-.5S19.7 19 20 19h4c.3 0 .5.2.5.5S24.3 20 24 20zM11 10H7c-.3 0-.5-.2-.5-.5S6.7 9 7 9h4c.3 0 .5.2.5.5S11.3 10 11 10zM24 10h-4c-.3 0-.5-.2-.5-.5S19.7 9 20 9h4c.3 0 .5.2.5.5S24.3 10 24 10z"/><path fill="#a16a4a" d="M15.5,29c-0.3,0-0.5-0.2-0.5-0.5v-24C15,4.2,15.2,4,15.5,4S16,4.2,16,4.5v24C16,28.8,15.8,29,15.5,29 z"/><g><path fill="#f78f8f" d="M15.8,4.8c-0.1,0-0.2-0.1-0.3-0.1s-0.2,0-0.3,0.1L1.5,13V9.9l14-8.3l14,8.3V13L15.8,4.8z"/><path fill="#c74343" d="M15.5,2.2l13.5,8v1.9L16,4.4c-0.2-0.1-0.3-0.1-0.5-0.1s-0.4,0-0.5,0.1L2,12.1v-1.9L15.5,2.2 M15.5,1L1,9.6v4.2l14.5-8.6L30,13.8V9.6L15.5,1L15.5,1z"/></g></svg>