<svg xmlns="http://www.w3.org/2000/svg" viewBox="0 0 30 30"><path fill="#f5ce85" d="M7.5 1.5A3 3 0 1 0 7.5 7.5A3 3 0 1 0 7.5 1.5Z"/><path fill="#967a44" d="M7.5,2C8.879,2,10,3.121,10,4.5S8.879,7,7.5,7S5,5.879,5,4.5S6.121,2,7.5,2 M7.5,1 C5.567,1,4,2.567,4,4.5S5.567,8,7.5,8S11,6.433,11,4.5S9.433,1,7.5,1L7.5,1z"/><path fill="#f5ce85" d="M2.5,20.5c-0.552,0-1-0.449-1-1v-6.099C1.668,13.452,1.87,13.5,2.094,13.5H3.5v6 C3.5,20.051,3.052,20.5,2.5,20.5z"/><path fill="#967a44" d="M2,13.998C2.031,13.999,2.062,14,2.094,14H3v5.5C3,19.776,2.776,20,2.5,20S2,19.776,2,19.5V13.998 M1.184,12.799C1.068,12.799,1,12.869,1,13.094V19.5C1,20.328,1.672,21,2.5,21S4,20.328,4,19.5V13H2.094 C1.715,13,1.38,12.799,1.184,12.799L1.184,12.799z"/><path fill="#f5ce85" d="M12.5,20.5c-0.552,0-1-0.449-1-1v-6h1.406c0.223,0,0.425-0.048,0.592-0.098L13.5,19.5 C13.5,20.051,13.052,20.5,12.5,20.5z"/><path fill="#967a44" d="M13,13.998V19.5c0,0.276-0.224,0.5-0.5,0.5S12,19.776,12,19.5V14h0.906 C12.938,14,12.969,13.999,13,13.998 M13.816,12.799c-0.196,0-0.531,0.201-0.91,0.201H11v6.5c0,0.828,0.672,1.5,1.5,1.5 s1.5-0.672,1.5-1.5v-6.406C14,12.869,13.932,12.799,13.816,12.799L13.816,12.799z"/><path fill="#f5ce85" d="M5,28.5c-0.827,0-1.5-0.673-1.5-1.5v-7.5h3V27C6.5,27.827,5.827,28.5,5,28.5z"/><path fill="#967a44" d="M6,20v7c0,0.551-0.449,1-1,1s-1-0.449-1-1v-7H6 M7,19H3v8c0,1.105,0.895,2,2,2s2-0.895,2-2V19L7,19 z"/><path fill="#f5ce85" d="M10,28.5c-0.827,0-1.5-0.673-1.5-1.5v-7.5h3V27C11.5,27.827,10.827,28.5,10,28.5z"/><path fill="#967a44" d="M11,20v7c0,0.551-0.449,1-1,1s-1-0.449-1-1v-7H11 M12,19H8v8c0,1.105,0.895,2,2,2s2-0.895,2-2V19 L12,19z"/><path fill="#c2e8ff" d="M3.5,18.5v-5h-2V13c0-1.93,1.57-3.5,3.5-3.5h5c1.93,0,3.5,1.57,3.5,3.5v0.5h-2v5H3.5z"/><path fill="#7496c4" d="M10,10c1.654,0,3,1.346,3,3h-1h-1v1v4H4v-4v-1H3H2c0-1.654,1.346-3,3-3H10 M10,9H5 c-2.209,0-4,1.791-4,4v1h2v5h9v-5h2v-1C14,10.791,12.209,9,10,9L10,9z"/><path fill="#f78f8f" d="M8.199 21.5L7.5 20.838 6.801 21.5 3.5 21.5 3.5 16.5 11.5 16.5 11.5 21.5z"/><path fill="#c74343" d="M11,17v4H8.398l-0.211-0.2L7.5,20.149l-0.687,0.651L6.602,21H4v-4H11 M12,16H3v6h4l0.5-0.473L8,22 h4V16L12,16z"/><path fill="#f5ce85" d="M22.5 1.5A3 3 0 1 0 22.5 7.5A3 3 0 1 0 22.5 1.5Z"/><path fill="#967a44" d="M22.5,2C23.879,2,25,3.121,25,4.5S23.879,7,22.5,7S20,5.879,20,4.5S21.121,2,22.5,2 M22.5,1 C20.567,1,19,2.567,19,4.5S20.567,8,22.5,8S26,6.433,26,4.5S24.433,1,22.5,1L22.5,1z"/><path fill="#f5ce85" d="M24,28.5c-0.827,0-1.5-0.673-1.5-1.5v-7.5h3V27C25.5,27.827,24.827,28.5,24,28.5z"/><path fill="#967a44" d="M25,20v7c0,0.551-0.449,1-1,1s-1-0.449-1-1v-7H25 M26,19h-4v8c0,1.105,0.895,2,2,2s2-0.895,2-2V19 L26,19z"/><g><path fill="#f5ce85" d="M21,28.5c-0.827,0-1.5-0.673-1.5-1.5v-7.5h3V27C22.5,27.827,21.827,28.5,21,28.5z"/><path fill="#967a44" d="M22,20v7c0,0.551-0.449,1-1,1s-1-0.449-1-1v-7H22 M23,19h-4v8c0,1.105,0.895,2,2,2s2-0.895,2-2V19 L23,19z"/></g><g><path fill="#f5ce85" d="M27.5,20.5c-0.552,0-1-0.449-1-1v-7h1.406c0.327,0,0.594,0.267,0.594,0.594V19.5 C28.5,20.051,28.052,20.5,27.5,20.5z"/><path fill="#967a44" d="M27.906,13C27.958,13,28,13.042,28,13.094V19.5c0,0.276-0.224,0.5-0.5,0.5S27,19.776,27,19.5V13 H27.906 M27.906,12H26v7.5c0,0.828,0.672,1.5,1.5,1.5s1.5-0.672,1.5-1.5v-6.406C29,12.49,28.51,12,27.906,12L27.906,12z"/></g><g><path fill="#f5ce85" d="M17.5,20.5c-0.552,0-1-0.449-1-1v-6.406c0-0.328,0.267-0.594,0.594-0.594H18.5v7 C18.5,20.051,18.052,20.5,17.5,20.5z"/><path fill="#967a44" d="M18,13v6.5c0,0.276-0.224,0.5-0.5,0.5S17,19.776,17,19.5v-6.406C17,13.042,17.042,13,17.094,13H18 M19,12h-1.906C16.49,12,16,12.49,16,13.094V19.5c0,0.828,0.672,1.5,1.5,1.5s1.5-0.672,1.5-1.5V12L19,12z"/></g><g><path fill="#bae0bd" d="M18.5,20.5v-7h-2V13c0-1.93,1.57-3.5,3.5-3.5h5c1.93,0,3.5,1.57,3.5,3.5v0.5h-2v7H18.5z"/><path fill="#5e9c76" d="M25,10c1.654,0,3,1.346,3,3h-1h-1v1v6h-7v-6v-1h-1h-1c0-1.654,1.346-3,3-3H25 M25,9h-5 c-2.209,0-4,1.791-4,4v1h2v7h9v-7h2v-1C29,10.791,27.209,9,25,9L25,9z"/></g><g><path fill="#bae0bd" d="M22.5,22.5c-2.362,0-4.814-0.568-5.848-0.839l2.2-6.161h7.39l2.112,6.16 C27.325,21.929,24.867,22.5,22.5,22.5z"/><path fill="#5e9c76" d="M25.886,16l1.82,5.307C26.525,21.59,24.476,22,22.5,22c-1.969,0-4.009-0.407-5.192-0.69L19.205,16 H25.886 M26.6,15h-8.1L16,22c0,0,3.301,1,6.5,1s6.5-1,6.5-1L26.6,15L26.6,15z"/></g><g><path fill="#a6714e" d="M19.687,3.5c0.417-1.172,1.539-2,2.813-2s2.396,0.828,2.813,2H19.687z"/><path fill="#7a4f34" d="M22.5,2c0.798,0,1.525,0.39,1.984,1h-3.967C20.975,2.39,21.702,2,22.5,2 M22.5,1 c-1.762,0-3.205,1.306-3.45,3h6.899C25.705,2.306,24.262,1,22.5,1L22.5,1z"/></g><g><path fill="#a6714e" d="M26.61,7.5c0.133-0.867,0.229-2.47-0.52-3.86c0.524,0.147,0.967,0.411,1.321,0.788 c0.873,0.929,1.055,2.344,1.087,3.072H26.61z"/><path fill="#7a4f34" d="M27.029,4.75c0.005,0.006,0.011,0.011,0.016,0.017C27.642,5.4,27.871,6.316,27.956,7H27.17 C27.222,6.371,27.217,5.572,27.029,4.75 M25,3c1.862,1.863,1,5,1,5h3C29,8,29.325,3,25,3L25,3z"/></g><g><path fill="#a6714e" d="M16.501,7.5c0.032-0.728,0.214-2.143,1.087-3.072c0.354-0.377,0.797-0.641,1.321-0.788 c-0.748,1.391-0.652,2.994-0.52,3.86H16.501z"/><path fill="#7a4f34" d="M17.971,4.75C17.783,5.572,17.778,6.371,17.83,7h-0.786c0.086-0.685,0.314-1.6,0.911-2.233 C17.96,4.762,17.966,4.756,17.971,4.75 M20,3c-4.325,0-4,5-4,5h3C19,8,18.138,4.863,20,3L20,3z"/></g></svg>