<svg xmlns="http://www.w3.org/2000/svg" viewBox="0 0 80 80"><path fill="#8bb7f0" d="M32.5,67.5H19C9.285,67.5,2.5,61.538,2.5,53V29c0-9.098,7.402-16.5,16.5-16.5h6.5v9H19 c-4.136,0-7.5,3.364-7.5,7.5v22c0,4.136,3.364,7.5,7.5,7.5h13.5v-7.45L47.207,63L32.5,74.95V67.5z M54.5,67.5v-9H61 c4.136,0,7.5-3.364,7.5-7.5V29c0-4.136-3.364-7.5-7.5-7.5H47.5v7.45L32.793,17L47.5,5.05v7.45H61c9.098,0,16.5,7.402,16.5,16.5v22 c0,9.098-7.402,16.5-16.5,16.5H54.5z"/><path fill="#4e7ab5" d="M47,6.101V12v1h1h13c8.822,0,16,7.178,16,16v22c0,8.822-7.178,16-16,16h-6v-8h6 c4.411,0,8-3.589,8-8V29c0-4.411-3.589-8-8-8H48h-1v1v5.899L33.586,17L47,6.101 M25,13v8h-6c-4.411,0-8,3.589-8,8v22 c0,4.411,3.589,8,8,8h13h1v-1v-5.899L46.414,63L33,73.899V68v-1h-1H19C9.579,67,3,61.243,3,53V29c0-8.822,7.178-16,16-16H25 M48,4 L32,17l16,13v-8h13c3.859,0,7,3.141,7,7v22c0,3.859-3.141,7-7,7h-7v10h7c9.373,0,17-7.626,17-17V29c0-9.374-7.627-17-17-17H48V4 L48,4z M26,12h-7C9.627,12,2,19.626,2,29v24c0,9.374,7.627,15,17,15h13v8l16-13L32,50v8H19c-3.859,0-7-3.141-7-7V29 c0-3.859,3.141-7,7-7h7V12L26,12z"/></svg>