<svg xmlns="http://www.w3.org/2000/svg" viewBox="0 0 100 100"><path fill="#fcba7f" d="M71.785,89.961H28.184c-4.788,0-8.705-3.918-8.53-8.789V22.583c-0.175-4.705,3.742-8.622,8.53-8.622h43.601c4.788,0,8.705,3.918,8.868,8.529v58.589C80.49,86.043,76.573,89.961,71.785,89.961z"/><path fill="#1f212b" d="M71.627,90.961H28.155c-2.62,0-5.06-1.037-6.871-2.92c-1.789-1.86-2.723-4.312-2.631-6.905l0-58.553c-0.092-2.461,0.827-4.846,2.587-6.678c1.797-1.871,4.318-2.944,6.915-2.944h43.472c5.24,0,9.654,4.259,9.838,9.494l0,58.624C81.284,86.634,76.963,90.961,71.627,90.961z M28.184,14.961c-2.064,0-4.067,0.85-5.495,2.332c-1.385,1.438-2.108,3.304-2.036,5.253l-0.281,58.571c0.094,2.156,0.946,4.069,2.36,5.535c1.436,1.489,3.372,2.309,5.452,2.309h43.602c4.267,0,7.723-3.477,7.869-7.916l0-58.556c-0.147-4.136-3.677-7.529-7.868-7.529H28.184z"/><path fill="#fed5b3" d="M67.996,21.461H32.311c-3.937,0-7.136,3.496-7.136,7.387l-0.021-1.187v14.181v36.532c0,3.891,3.221,5.087,7.158,5.087h35.685c3.937,0,7.158-1.195,7.158-5.087v-1.989V63.079l-0.125-34.735C75.028,24.453,71.933,21.461,67.996,21.461z"/><path fill="#1f212b" d="M67.996,83.961H32.311c-6.329,0-7.658-3.038-7.658-5.587V27.661l0,0c0.574-3.736,3.908-6.7,7.658-6.7h35.685c4.224,0,7.533,3.243,7.533,7.384l0.125,34.733v15.296C75.654,80.923,74.325,83.961,67.996,83.961z M25.654,28.848v49.526c0,3.086,2.178,4.587,6.658,4.587h35.685c4.48,0,6.658-1.5,6.658-4.587V63.079l0.062-34.712c0-3.582-3.057-6.406-6.72-6.406H32.311C28.714,21.961,25.654,25.114,25.654,28.848L25.654,28.848z"/><path fill="#8f9eb6" d="M64.388,14.539c-0.625-2.163-2.71-3.578-4.962-3.578h-2.136c0.015-0.193,0.029-0.386,0.029-0.583c0-4.004-3.246-7.25-7.25-7.25c-4.004,0-7.25,3.246-7.25,7.25c0,0.197,0.014,0.39,0.029,0.583h-2.276c-2.251,0-4.337,1.416-4.962,3.578c-0.354,1.224-0.24,2.406,0.196,3.422h28.385C64.628,16.945,64.742,15.763,64.388,14.539z"/><path fill="#1f212b" d="M64.193 18.961H35.808c-.4 0-.761-.238-.919-.606-.556-1.295-.638-2.71-.237-4.093.731-2.532 3.166-4.301 5.922-4.301h1.257c.218-4.356 3.831-7.833 8.24-7.833s8.022 3.477 8.24 7.833h1.117c2.755 0 5.191 1.769 5.922 4.301l0 0c.4 1.382.318 2.798-.236 4.093C64.954 18.722 64.593 18.961 64.193 18.961zM36.522 16.961h26.956c.174-.693.158-1.424-.05-2.144l0 0c-.485-1.682-2.13-2.856-4-2.856h-2.136c-.279 0-.546-.117-.735-.322-.189-.205-.285-.48-.262-.758.013-.167.026-.333.026-.503 0-3.446-2.804-6.25-6.25-6.25s-6.25 2.804-6.25 6.25c0 .17.013.336.026.503.022.278-.072.553-.262.758-.189.206-.456.322-.735.322h-2.276c-1.87 0-3.515 1.174-4 2.856C36.364 15.537 36.348 16.267 36.522 16.961zM75.154 61.961c-.276 0-.5-.224-.5-.5v-6c0-.276.224-.5.5-.5s.5.224.5.5v6C75.654 61.737 75.43 61.961 75.154 61.961z"/><path fill="#fff" d="M50.154 7.461A2 2 0 1 0 50.154 11.461A2 2 0 1 0 50.154 7.461Z"/><path fill="#1f212b" d="M50.154 11.961c-1.378 0-2.5-1.122-2.5-2.5s1.122-2.5 2.5-2.5 2.5 1.122 2.5 2.5S51.532 11.961 50.154 11.961zM50.154 7.961c-.827 0-1.5.673-1.5 1.5s.673 1.5 1.5 1.5 1.5-.673 1.5-1.5S50.981 7.961 50.154 7.961zM63.154 31.96h-8c-.276 0-.5-.199-.5-.445 0-.246.224-.445.5-.445h8c.276 0 .5.199.5.445C63.654 31.761 63.43 31.96 63.154 31.96zM70.154 31.96h-5c-.276 0-.5-.199-.5-.445 0-.246.224-.445.5-.445h5c.276 0 .5.199.5.445C70.654 31.761 70.43 31.96 70.154 31.96zM53.154 31.96h-13c-.276 0-.5-.199-.5-.445 0-.246.224-.445.5-.445h13c.276 0 .5.199.5.445C53.654 31.761 53.43 31.96 53.154 31.96zM70.154 36.96h-10c-.276 0-.5-.21-.5-.469 0-.259.224-.469.5-.469h10c.276 0 .5.21.5.469C70.654 36.751 70.43 36.96 70.154 36.96zM58.154 36.96h-18c-.276 0-.5-.21-.5-.469 0-.259.224-.469.5-.469h18c.276 0 .5.21.5.469C58.654 36.751 58.43 36.96 58.154 36.96z"/><path fill="#fefdef" d="M31.154 31.507H36.153999999999996V36.464H31.154z"/><path fill="#1f212b" d="M36.154 36.96h-5c-.276 0-.5-.222-.5-.496v-4.957c0-.274.224-.496.5-.496h5c.276 0 .5.222.5.496v4.957C36.654 36.738 36.43 36.96 36.154 36.96zM31.654 35.969h4v-4.063h-4V35.969zM63.154 48.961h-8c-.276 0-.5-.224-.5-.5s.224-.5.5-.5h8c.276 0 .5.224.5.5S63.43 48.961 63.154 48.961zM70.154 48.961h-5c-.276 0-.5-.224-.5-.5s.224-.5.5-.5h5c.276 0 .5.224.5.5S70.43 48.961 70.154 48.961zM53.154 48.961h-13c-.276 0-.5-.224-.5-.5s.224-.5.5-.5h13c.276 0 .5.224.5.5S53.43 48.961 53.154 48.961zM70.154 53.961h-10c-.276 0-.5-.21-.5-.471 0-.26.224-.471.5-.471h10c.276 0 .5.21.5.471C70.654 53.75 70.43 53.961 70.154 53.961zM58.154 53.961h-18c-.276 0-.5-.21-.5-.471 0-.26.224-.471.5-.471h18c.276 0 .5.21.5.471C58.654 53.75 58.43 53.961 58.154 53.961z"/><path fill="#fefdef" d="M31.154 48.461H36.153999999999996V53.461H31.154z"/><path fill="#1f212b" d="M36.154 53.961h-5c-.276 0-.5-.224-.5-.5v-5c0-.276.224-.5.5-.5h5c.276 0 .5.224.5.5v5C36.654 53.737 36.43 53.961 36.154 53.961zM31.654 52.961h4v-4h-4V52.961zM63.154 64.961h-8c-.276 0-.5-.224-.5-.5s.224-.5.5-.5h8c.276 0 .5.224.5.5S63.43 64.961 63.154 64.961zM70.154 64.961h-5c-.276 0-.5-.224-.5-.5s.224-.5.5-.5h5c.276 0 .5.224.5.5S70.43 64.961 70.154 64.961zM53.154 64.961h-13c-.276 0-.5-.224-.5-.5s.224-.5.5-.5h13c.276 0 .5.224.5.5S53.43 64.961 53.154 64.961zM70.154 69.961h-10c-.276 0-.5-.224-.5-.5s.224-.5.5-.5h10c.276 0 .5.224.5.5S70.43 69.961 70.154 69.961zM58.154 69.961h-18c-.276 0-.5-.224-.5-.5s.224-.5.5-.5h18c.276 0 .5.224.5.5S58.43 69.961 58.154 69.961z"/><path fill="#fefdef" d="M31.154 64.461H36.153999999999996V69.461H31.154z"/><path fill="#1f212b" d="M36.154,69.961h-5c-0.276,0-0.5-0.224-0.5-0.5v-5c0-0.276,0.224-0.5,0.5-0.5h5c0.276,0,0.5,0.224,0.5,0.5v5C36.654,69.737,36.43,69.961,36.154,69.961z M31.654,68.961h4v-4h-4V68.961z"/></svg>