<svg xmlns="http://www.w3.org/2000/svg" viewBox="0 0 30 30"><path fill="#f5ce85" d="M1.5 3.5H26V26.5H1.5z"/><path fill="#f78f8f" d="M22.5 18.5L14.5 18.5 14.5 14.5 22.5 14.5 22.5 11.146 28.265 16.5 22.5 21.854z"/><path fill="#c74343" d="M23,12.293l4.53,4.207L23,20.707V19v-1h-1h-7v-3h7h1v-1V12.293 M22,10v4h-8v5h8v4l7-6.5L22,10L22,10 z"/><path fill="#967a44" d="M25 21.579L25 21.621 25 26 2 26 2 4 25 4 25 11.421 26 12.35 26 3 1 3 1 27 26 27 26 20.65z"/><path fill="#967a44" d="M16.5,7c-0.228,0-5.773,0-6,0C10.224,7,10,7.224,10,7.5C10,7.776,10.224,8,10.5,8 c0.227,0,5.772,0,6,0C16.776,8,17,7.776,17,7.5C17,7.224,16.776,7,16.5,7z"/></svg>