<svg xmlns="http://www.w3.org/2000/svg" viewBox="0 0 80 80"><path fill="#c2e8ff" d="M51.575,47.5l-0.93-6.595l-0.309-0.091c-2.438-0.722-4.719-2.036-6.596-3.8l-0.229-0.214 l-6.32,2.401l-3.407-5.9l5.256-4.246l-0.07-0.305c-0.296-1.27-0.445-2.531-0.445-3.749c0-1.251,0.158-2.548,0.472-3.854 l0.074-0.313l-5.282-4.14l3.406-5.899l6.386,2.342l0.225-0.209c1.807-1.681,3.891-2.906,6.193-3.642l0.283-0.09L51.555,2.5h6.822 l0.983,6.584l0.307,0.09c2.411,0.706,4.675,1.993,6.544,3.722l0.225,0.207l6.318-2.309l3.416,5.918l-5.107,4.427l0.064,0.291 c0.265,1.197,0.398,2.398,0.398,3.57c0,1.23-0.152,2.5-0.451,3.775l-0.072,0.304l5.162,4.219l-3.41,5.907l-6.318-2.309 l-0.225,0.207c-1.869,1.729-4.132,3.016-6.544,3.722l-0.307,0.09L58.377,47.5H51.575z M55.025,17.5c-4.136,0-7.5,3.364-7.5,7.5 s3.364,7.5,7.5,7.5s7.5-3.364,7.5-7.5S59.161,17.5,55.025,17.5z"/><path fill="#788b9c" d="M57.946,3l0.873,5.842l0.094,0.632l0.614,0.18c2.338,0.685,4.532,1.933,6.345,3.609l0.448,0.415 l0.574-0.21l5.636-2.06l3,5.197l-4.57,3.961l-0.45,0.39l0.128,0.581c0.257,1.162,0.387,2.327,0.387,3.463 c0,1.189-0.147,2.421-0.438,3.662l-0.142,0.608l0.483,0.395l4.591,3.752l-2.988,5.176l-5.636-2.06l-0.574-0.21l-0.448,0.415 c-1.813,1.677-4.008,2.925-6.345,3.609l-0.614,0.18l-0.094,0.632L57.946,47H52.01l-0.824-5.846l-0.09-0.637l-0.617-0.183 c-2.363-0.7-4.575-1.974-6.396-3.685l-0.456-0.428l-0.584,0.222l-5.63,2.139l-2.98-5.162l4.679-3.78l0.488-0.394l-0.142-0.611 c-0.286-1.23-0.432-2.454-0.432-3.636c0-1.213,0.154-2.47,0.458-3.738l0.15-0.624l-0.505-0.396l-4.689-3.674l2.979-5.159 l5.703,2.091l0.576,0.211l0.449-0.418c1.753-1.63,3.773-2.818,6.005-3.531l0.567-0.181l0.111-0.585L51.969,3H57.946 M55.026,33 c4.411,0,8-3.589,8-8s-3.589-8-8-8s-8,3.589-8,8S50.614,33,55.026,33 M58.808,2h-7.667l-1.294,6.809 c-2.409,0.77-4.574,2.07-6.382,3.751l-6.492-2.381l-3.833,6.64l5.372,4.21c-0.306,1.276-0.485,2.601-0.485,3.971 c0,1.331,0.168,2.62,0.458,3.862l-5.344,4.318l3.833,6.64l6.426-2.441c1.907,1.792,4.221,3.153,6.797,3.915L51.141,48h7.667 l1-6.694c2.55-0.747,4.843-2.078,6.743-3.835l6.426,2.348l3.833-6.64l-5.249-4.29c0.293-1.251,0.465-2.549,0.465-3.89 c0-1.264-0.148-2.493-0.41-3.678l5.194-4.502l-3.833-6.64l-6.426,2.349c-1.9-1.757-4.193-3.088-6.743-3.835L58.808,2L58.808,2z M55.026,32c-3.866,0-7-3.134-7-7s3.134-7,7-7s7,3.134,7,7S58.892,32,55.026,32L55.026,32z"/><g><path fill="#dcd5f2" d="M21.575,77.5l-0.93-6.595l-0.309-0.091c-2.438-0.722-4.719-2.036-6.596-3.8l-0.229-0.214 l-6.32,2.401l-3.407-5.9l5.256-4.246l-0.07-0.305C8.675,57.479,8.525,56.218,8.525,55c0-1.251,0.158-2.548,0.472-3.854 l0.074-0.313l-5.282-4.14l3.406-5.899l6.386,2.342l0.225-0.209c1.807-1.681,3.891-2.906,6.193-3.642l0.283-0.09l1.272-6.695h6.822 l0.983,6.584l0.307,0.09c2.411,0.706,4.675,1.993,6.544,3.722l0.225,0.207l6.318-2.309l3.416,5.918l-5.107,4.427l0.064,0.291 c0.265,1.197,0.398,2.398,0.398,3.57c0,1.23-0.152,2.5-0.451,3.775l-0.072,0.304l5.162,4.219l-3.41,5.907l-6.318-2.309 l-0.225,0.207c-1.869,1.729-4.132,3.016-6.544,3.722l-0.307,0.09L28.377,77.5H21.575z M25.025,47.5c-4.136,0-7.5,3.364-7.5,7.5 s3.364,7.5,7.5,7.5s7.5-3.364,7.5-7.5S29.161,47.5,25.025,47.5z"/><path fill="#8b75a1" d="M27.946,33l0.873,5.842l0.094,0.632l0.614,0.18c2.338,0.685,4.532,1.933,6.345,3.609l0.448,0.415 l0.574-0.21l5.636-2.06l3,5.197l-4.57,3.961l-0.45,0.39l0.128,0.581c0.257,1.162,0.387,2.327,0.387,3.463 c0,1.189-0.147,2.421-0.438,3.661l-0.142,0.608l0.483,0.395l4.591,3.752l-2.988,5.176l-5.636-2.06l-0.574-0.21l-0.448,0.415 c-1.813,1.677-4.008,2.925-6.345,3.609l-0.614,0.18l-0.094,0.632L27.946,77H22.01l-0.824-5.846l-0.09-0.637l-0.617-0.183 c-2.363-0.7-4.575-1.974-6.396-3.685l-0.456-0.428l-0.584,0.222l-5.63,2.139l-2.98-5.162l4.679-3.78l0.488-0.394l-0.142-0.611 C9.171,57.405,9.026,56.182,9.026,55c0-1.213,0.154-2.47,0.458-3.738l0.15-0.624l-0.505-0.396l-4.689-3.674l2.979-5.159 l5.703,2.091l0.576,0.211l0.449-0.418c1.753-1.63,3.773-2.818,6.005-3.531l0.567-0.181l0.111-0.585L21.969,33H27.946 M25.026,63 c4.411,0,8-3.589,8-8s-3.589-8-8-8s-8,3.589-8,8S20.614,63,25.026,63 M28.808,32h-7.667l-1.294,6.809 c-2.409,0.77-4.574,2.07-6.382,3.751L6.972,40.18l-3.833,6.64l5.372,4.21C8.205,52.305,8.026,53.63,8.026,55 c0,1.331,0.168,2.62,0.458,3.862L3.139,63.18l3.833,6.64l6.426-2.441c1.907,1.792,4.221,3.153,6.797,3.915L21.141,78h7.667 l1-6.694c2.55-0.747,4.843-2.078,6.743-3.835l6.426,2.348l3.833-6.64l-5.249-4.29c0.293-1.251,0.465-2.549,0.465-3.89 c0-1.264-0.148-2.493-0.41-3.678l5.194-4.502l-3.833-6.64l-6.426,2.349c-1.9-1.757-4.193-3.088-6.743-3.835L28.808,32L28.808,32z M25.026,62c-3.866,0-7-3.134-7-7s3.134-7,7-7s7,3.134,7,7S28.892,62,25.026,62L25.026,62z"/></g></svg>