<svg xmlns="http://www.w3.org/2000/svg" viewBox="0 0 48 48"><path fill="#607d8b" d="M32,31c0,0-2.215-4-8-4s-8,4-8,4v2h16V31z"/><path fill="#ff9800" d="M26,24h-4v3c0,0-0.121,2,1.961,2S26,27,26,27V24z"/><path fill="#ffb74d" d="M24,26c-2.758,0-5-2.242-5-5s2.242-5,5-5s5,2.242,5,5S26.758,26,24,26"/><path fill="#424242" d="M23.781,14C21.344,14.219,19,15.93,19,19.574V21l1,1v-3l6.309-2.199L28,19v3l1-1v-1.203c0-2.414-0.137-4.203-3-4.797l-0.484-1H23.781z"/><path fill="#2196f3" d="M24,4C13.292,4,4.575,12.422,4.05,23h3C7.571,14.079,14.949,7,24,7c6.979,0,12.969,4.209,15.588,10.224l2.756-1.185C39.265,8.957,32.215,4,24,4z"/><path fill="#2196f3" d="M5.5 27l4.5-5H1L5.5 27zM24 44c10.708 0 19.425-8.422 19.95-19h-3c-.52 8.921-7.898 16-16.95 16-6.979 0-12.969-4.209-15.588-10.224l-2.756 1.185C8.735 39.043 15.785 44 24 44z"/><path fill="#2196f3" d="M42.5,21L38,26h9L42.5,21z"/></svg>