<svg xmlns="http://www.w3.org/2000/svg" viewBox="0 0 64 64"><radialGradient id="QEyujsFqAIjHXqsk70cD3a" cx="32" cy="34" r="31.504" gradientTransform="matrix(1 0 0 -1 0 66)" gradientUnits="userSpaceOnUse"><stop offset="0" stop-color="#f4e9c3"/><stop offset=".219" stop-color="#f8eecd"/><stop offset=".644" stop-color="#fdf4dc"/><stop offset="1" stop-color="#fff6e1"/></radialGradient><path fill="url(#QEyujsFqAIjHXqsk70cD3a)" d="M63.92,48.24C63.58,49.88,62.06,51,60.39,51H54c-0.55,0-1.05,0.22-1.41,0.59C52.22,51.95,52,52.45,52,53c0,1.1,0.9,2,2,2h2c2.33,0,4.22,2.03,3.98,4.41C59.77,61.49,57.9,63,55.81,63H6c-2.33,0-4.22-2.03-3.98-4.41C2.23,56.51,4.1,55,6.19,55H7.5c0.69,0,1.32-0.28,1.77-0.73C9.72,53.82,10,53.19,10,52.5c0-1.38-1.12-2.5-2.5-2.5H4c-1.85,0-3.32-1.69-2.94-3.6C1.34,44.97,2.68,44,4.13,44H8.5c1.52,0,2.9-0.62,3.89-1.61C13.38,41.4,14,40.02,14,38.5c0-3.04-2.46-5.5-5.5-5.5H4c-2.33,0-4.22-2.03-3.98-4.41C0.23,26.51,2.1,25,4.19,25H8.5c2,0,3.6-1.67,3.5-3.69C11.9,19.42,10.2,18,8.3,18H5c-2.33,0-4.22-2.03-3.98-4.41C1.23,11.51,3.1,10,5.19,10H11c1.21,0,2.18-1.08,1.97-2.34C12.81,6.68,11.89,6,10.89,6H9.5C8.03,6,6.86,4.74,7.01,3.24C7.14,1.94,8.33,1,9.64,1H53.5c1.47,0,2.64,1.26,2.49,2.76C55.86,5.06,54.67,6,53.36,6H52.5C51.67,6,51,6.67,51,7.5S51.67,9,52.5,9h6c1.47,0,2.64,1.26,2.49,2.76c-0.13,1.3-1.32,2.24-2.63,2.24H58c-1.21,0-2.18,1.08-1.97,2.34c0.16,0.98,1.08,1.66,2.08,1.66h1.7c2.09,0,3.96,1.51,4.17,3.59C64.22,23.97,62.33,26,60,26h-1c-0.83,0-1.58,0.34-2.12,0.88S56,28.17,56,29c0,1.66,1.34,3,3,3h2c1.85,0,3.32,1.69,2.94,3.6c-0.28,1.43-1.62,2.4-3.07,2.4H54c-1.47,0-2.64,2.26-2.49,3.76c0.13,1.3,1.32,2.24,2.63,2.24h6.36C62.67,44,64.39,46,63.92,48.24z"/><linearGradient id="QEyujsFqAIjHXqsk70cD3b" x1="32" x2="32" y1="54.225" y2="34.489" gradientTransform="matrix(1 0 0 -1 0 66)" gradientUnits="userSpaceOnUse"><stop offset=".122" stop-color="#5e6d7b"/><stop offset=".191" stop-color="#5d6b79"/><stop offset="1" stop-color="#515c69"/></linearGradient><path fill="url(#QEyujsFqAIjHXqsk70cD3b)" d="M45.491,9H18.509c-0.893,0-1.678,0.592-1.923,1.451L15,20h34l-1.586-9.549C47.169,9.592,46.384,9,45.491,9z"/><linearGradient id="QEyujsFqAIjHXqsk70cD3c" x1="32" x2="32" y1="76.366" y2="45.447" gradientTransform="matrix(1 0 0 -1 0 66)" gradientUnits="userSpaceOnUse"><stop offset="0" stop-color="#dff9ff"/><stop offset="0" stop-color="#dff9ff"/><stop offset=".173" stop-color="#d8f8ff"/><stop offset=".423" stop-color="#c5f4ff"/><stop offset=".72" stop-color="#a5eeff"/><stop offset="1" stop-color="#81e7ff"/></linearGradient><path fill="url(#QEyujsFqAIjHXqsk70cD3c)" d="M45,21H19V8c0-1.105,0.895-2,2-2h22c1.105,0,2,0.895,2,2V21z"/><linearGradient id="QEyujsFqAIjHXqsk70cD3d" x1="32" x2="32" y1="19" y2="47.36" gradientTransform="matrix(1 0 0 -1 0 66)" gradientUnits="userSpaceOnUse"><stop offset="0" stop-color="#76818b"/><stop offset="1" stop-color="#7f8a96"/></linearGradient><path fill="url(#QEyujsFqAIjHXqsk70cD3d)" d="M54,27v16c0,2.21-1.79,4-4,4H14c-2.21,0-4-1.79-4-4V27c0-2.21,1.79-4,4-4h36C52.21,23,54,24.79,54,27z"/><linearGradient id="QEyujsFqAIjHXqsk70cD3e" x1="32" x2="32" y1="28.575" y2="23.697" gradientTransform="matrix(1 0 0 -1 0 66)" gradientUnits="userSpaceOnUse"><stop offset=".122" stop-color="#5e6d7b"/><stop offset=".191" stop-color="#5d6b79"/><stop offset="1" stop-color="#515c69"/></linearGradient><path fill="url(#QEyujsFqAIjHXqsk70cD3e)" d="M46,42H18c-1.105,0-2-0.895-2-2v-1c0-1.105,0.895-2,2-2h28c1.105,0,2,0.895,2,2v1C48,41.105,47.105,42,46,42z"/><linearGradient id="QEyujsFqAIjHXqsk70cD3f" x1="-702" x2="-702" y1="590.505" y2="535.416" gradientTransform="matrix(-1 0 0 1 -670 -491)" gradientUnits="userSpaceOnUse"><stop offset="0" stop-color="#dff9ff"/><stop offset="0" stop-color="#dff9ff"/><stop offset=".173" stop-color="#d8f8ff"/><stop offset=".423" stop-color="#c5f4ff"/><stop offset=".72" stop-color="#a5eeff"/><stop offset="1" stop-color="#81e7ff"/></linearGradient><path fill="url(#QEyujsFqAIjHXqsk70cD3f)" d="M19,42h26v16c0,1.105-0.895,2-2,2H21c-1.105,0-2-0.895-2-2V42z"/><linearGradient id="QEyujsFqAIjHXqsk70cD3g" x1="32" x2="32" y1="44.979" y2="33.272" gradientTransform="matrix(1 0 0 -1 0 66)" gradientUnits="userSpaceOnUse"><stop offset="0" stop-color="#848e97"/><stop offset="1" stop-color="#8c96a1"/></linearGradient><path fill="url(#QEyujsFqAIjHXqsk70cD3g)" d="M54,24v8H10v-8c0-2.21,1.79-4,4-4h36C52.21,20,54,21.79,54,24z"/><linearGradient id="QEyujsFqAIjHXqsk70cD3h" x1="16.5" x2="16.5" y1="41.965" y2="36.537" gradientTransform="matrix(1 0 0 -1 0 66)" gradientUnits="userSpaceOnUse"><stop offset="0" stop-color="#62de8f"/><stop offset=".478" stop-color="#5dd18d"/><stop offset="1" stop-color="#56be89"/></linearGradient><circle cx="16.5" cy="26.5" r="2.5" fill="url(#QEyujsFqAIjHXqsk70cD3h)"/><linearGradient id="QEyujsFqAIjHXqsk70cD3i" x1="32" x2="32" y1="39.809" y2="37.1" gradientTransform="matrix(1 0 0 -1 0 66)" gradientUnits="userSpaceOnUse"><stop offset=".122" stop-color="#5e6d7b"/><stop offset=".191" stop-color="#5d6b79"/><stop offset="1" stop-color="#515c69"/></linearGradient><path fill="url(#QEyujsFqAIjHXqsk70cD3i)" d="M40.5,28h-17c-0.828,0-1.5-0.672-1.5-1.5l0,0c0-0.828,0.672-1.5,1.5-1.5h17c0.828,0,1.5,0.672,1.5,1.5l0,0C42,27.328,41.328,28,40.5,28z"/><path fill="#f1fcff" d="M32.5,48h-9c-0.828,0-1.5-0.672-1.5-1.5l0,0c0-0.828,0.672-1.5,1.5-1.5h9c0.828,0,1.5,0.672,1.5,1.5l0,0C34,47.328,33.328,48,32.5,48z"/><path fill="#f1fcff" d="M40.5,48h-3c-0.828,0-1.5-0.672-1.5-1.5l0,0c0-0.828,0.672-1.5,1.5-1.5h3c0.828,0,1.5,0.672,1.5,1.5l0,0C42,47.328,41.328,48,40.5,48z"/><path fill="#f1fcff" d="M28.5,55h-5c-0.828,0-1.5-0.672-1.5-1.5l0,0c0-0.828,0.672-1.5,1.5-1.5h5c0.828,0,1.5,0.672,1.5,1.5l0,0C30,54.328,29.328,55,28.5,55z"/><path fill="#f1fcff" d="M40.5,55h-7c-0.828,0-1.5-0.672-1.5-1.5l0,0c0-0.828,0.672-1.5,1.5-1.5h7c0.828,0,1.5,0.672,1.5,1.5l0,0C42,54.328,41.328,55,40.5,55z"/><linearGradient id="QEyujsFqAIjHXqsk70cD3j" x1="32" x2="32" y1="41" y2="22.424" gradientTransform="matrix(1 0 0 -1 0 66)" gradientUnits="userSpaceOnUse"><stop offset="0" stop-color="#155cde"/><stop offset=".278" stop-color="#1f7fe5"/><stop offset=".569" stop-color="#279ceb"/><stop offset=".82" stop-color="#2cafef"/><stop offset="1" stop-color="#2eb5f0"/></linearGradient><path fill="url(#QEyujsFqAIjHXqsk70cD3j)" d="M43.5,39h-23c-0.828,0-1.5,0.672-1.5,1.5V42h26v-1.5C45,39.672,44.328,39,43.5,39z"/></svg>