<?xml version="1.0" standalone="no"?>
<!DOCTYPE svg PUBLIC "-//W3C//DTD SVG 1.1//EN" "http://www.w3.org/Graphics/SVG/1.1/DTD/svg11.dtd">
<!--Generator: Xara Designer (www.xara.com), SVG filter version: 6.3.0.23-->
<svg fill="none" fill-rule="evenodd" stroke="black" stroke-width="0.501" stroke-linejoin="bevel" stroke-miterlimit="10" font-family="Times New Roman" font-size="16" style="font-variant-ligatures:none" xmlns:xlink="http://www.w3.org/1999/xlink" xmlns="http://www.w3.org/2000/svg" version="1.1" overflow="visible" width="70.101pt" height="133.403pt" viewBox="0 -133.403 70.101 133.403">
 <defs>
	</defs>
 <g id="Layer 1" transform="scale(1 -1)">
  <path d="M 33.851,14.118 L 33.842,14.118 C 25.176,14.123 17.715,21.172 18.152,30.203 C 18.736,42.213 29.388,43.935 33.044,49.307 C 33.216,49.582 33.518,49.749 33.844,49.75 C 34.169,49.75 34.471,49.583 34.644,49.308 L 34.648,49.308 C 38.303,43.937 48.96,42.215 49.542,30.203 C 49.979,21.17 42.519,14.123 33.851,14.118 Z M 33.847,59.972 C 17.612,59.972 4.452,46.845 4.452,30.653 C 4.452,14.46 17.612,1.333 33.847,1.333 C 50.081,1.333 63.243,14.46 63.243,30.653 C 63.243,46.845 50.081,59.972 33.847,59.972 Z" fill="#006aa7" stroke="none" stroke-width="1.668" stroke-linejoin="miter" marker-start="none" marker-end="none"/>
  <path d="M 67.663,111.808 L 67.65,112.228 L 67.23,112.181 C 59.893,111.363 53.054,108.341 47.394,103.428 C 47.423,104.009 47.436,104.581 47.436,105.138 C 47.436,116.153 42.58,126.305 34.114,132.992 L 33.841,133.209 L 33.567,132.992 C 25.103,126.305 20.247,116.153 20.247,105.138 C 20.247,104.581 20.26,104.009 20.289,103.428 C 14.629,108.341 7.79,111.363 0.453,112.183 L 0.031,112.228 L 0.018,111.806 C 0.008,111.431 0,111.056 0,110.679 C 0,98.823 6.029,88.317 15.428,81.602 C 17.625,80.033 19.963,78.399 22.285,76.899 C 26.74,74.025 30.947,71.31 32.647,68.312 C 32.875,67.862 33.337,67.579 33.841,67.579 C 34.346,67.579 34.807,67.862 35.036,68.312 C 36.734,71.31 40.943,74.025 45.397,76.899 C 47.719,78.413 50.006,79.981 52.255,81.602 C 61.652,88.315 67.683,98.824 67.683,110.679 C 67.683,111.056 67.675,111.431 67.663,111.806" fill="#4daf46" stroke="none" stroke-width="1.668" stroke-linejoin="miter"/>
 </g>
</svg>
