<?xml version="1.0" encoding="UTF-8"?>
<svg xmlns="http://www.w3.org/2000/svg" xmlns:xlink="http://www.w3.org/1999/xlink" width="48pt" height="48pt" viewBox="0 0 48 48" version="1.1">
<g id="surface1">
<path style=" stroke:none;fill-rule:nonzero;fill:#FFFFFF;fill-opacity:1;" d="M 24 4 C 19.421875 4 15.125 6.273438 12.515625 10.007813 C 5.570313 10.265625 0 15.992188 0 23 C 0 29.125 4.265625 34.257813 9.984375 35.625 C 10.695313 27.984375 17.125 22 24.960938 22 C 32.773438 22 39.195313 27.960938 39.929688 35.585938 C 39.929688 35.585938 39.929688 35.59375 39.929688 35.59375 C 44.578125 34.304688 48 30.046875 48 25 C 48 19.070313 43.289063 14.226563 37.40625 14.007813 C 35.679688 8.109375 30.296875 4 24 4 Z M 24 26.054688 C 18.40625 26.5625 14 31.273438 14 37 C 14 39.484375 14.820313 41.8125 16.296875 43.710938 L 14 46 L 22 46 L 22 38 L 19.1875 40.8125 C 18.445313 39.695313 18 38.398438 18 37 C 18 33.484375 20.617188 30.59375 24 30.101563 Z M 28 28 L 28 36 L 30.8125 33.1875 C 31.554688 34.304688 32 35.601563 32 37 C 32 40.515625 29.382813 43.40625 26 43.898438 L 26 47.945313 C 31.59375 47.4375 36 42.726563 36 37 C 36 34.515625 35.179688 32.1875 33.710938 30.289063 L 36 28 Z "/>
</g>
</svg>
